<mxfile host="app.diagrams.net" modified="2022-04-07T09:08:14.276Z" agent="5.0 (Windows NT 10.0; Win64; x64) AppleWebKit/537.36 (KHTML, like Gecko) Chrome/99.0.4844.84 Safari/537.36 OPR/85.0.4341.47" etag="JyQPqwOvQuEMlUInjI-O" version="17.4.0" type="github">
  <diagram id="UBG563MczrVOb0AlTc1t" name="Page-1">
    <mxGraphModel dx="2367" dy="386" grid="1" gridSize="10" guides="1" tooltips="1" connect="1" arrows="1" fold="1" page="1" pageScale="1" pageWidth="827" pageHeight="1169" math="0" shadow="0">
      <root>
        <mxCell id="0" />
        <mxCell id="1" parent="0" />
        <mxCell id="jVsQilZwX-sPZZp8XZDI-1" value="Email" style="ellipse;whiteSpace=wrap;html=1;" vertex="1" parent="1">
          <mxGeometry x="176.40999999999997" y="320" width="60" height="30" as="geometry" />
        </mxCell>
        <mxCell id="jVsQilZwX-sPZZp8XZDI-2" value="Surname" style="ellipse;whiteSpace=wrap;html=1;" vertex="1" parent="1">
          <mxGeometry x="-386.51" y="460.75" width="65.71" height="40" as="geometry" />
        </mxCell>
        <mxCell id="jVsQilZwX-sPZZp8XZDI-3" value="Name" style="ellipse;whiteSpace=wrap;html=1;" vertex="1" parent="1">
          <mxGeometry x="-337.08" y="316.88" width="65.71" height="40" as="geometry" />
        </mxCell>
        <mxCell id="jVsQilZwX-sPZZp8XZDI-4" value="&lt;u&gt;ID&lt;/u&gt;" style="ellipse;whiteSpace=wrap;html=1;" vertex="1" parent="1">
          <mxGeometry x="-287.56000000000006" y="308.82" width="55.21" height="37.5" as="geometry" />
        </mxCell>
        <mxCell id="jVsQilZwX-sPZZp8XZDI-5" value="Date of entry" style="ellipse;whiteSpace=wrap;html=1;" vertex="1" parent="1">
          <mxGeometry x="-323.78999999999996" y="500" width="81.79" height="40" as="geometry" />
        </mxCell>
        <mxCell id="jVsQilZwX-sPZZp8XZDI-6" value="" style="endArrow=none;html=1;exitX=1;exitY=0;exitDx=0;exitDy=0;entryX=0;entryY=0.75;entryDx=0;entryDy=0;" edge="1" parent="1" source="jVsQilZwX-sPZZp8XZDI-2" target="jVsQilZwX-sPZZp8XZDI-101">
          <mxGeometry width="50" height="50" relative="1" as="geometry">
            <mxPoint x="-253.7" y="445.75" as="sourcePoint" />
            <mxPoint x="-209.40999999999985" y="425.75" as="targetPoint" />
          </mxGeometry>
        </mxCell>
        <mxCell id="jVsQilZwX-sPZZp8XZDI-7" value="" style="endArrow=none;html=1;exitX=1;exitY=0.5;exitDx=0;exitDy=0;entryX=0;entryY=0.5;entryDx=0;entryDy=0;" edge="1" parent="1" source="jVsQilZwX-sPZZp8XZDI-3">
          <mxGeometry width="50" height="50" relative="1" as="geometry">
            <mxPoint x="-243.7" y="455.75" as="sourcePoint" />
            <mxPoint x="-209.40999999999985" y="405.75" as="targetPoint" />
          </mxGeometry>
        </mxCell>
        <mxCell id="jVsQilZwX-sPZZp8XZDI-8" value="" style="endArrow=none;html=1;exitX=1;exitY=0.5;exitDx=0;exitDy=0;entryX=0;entryY=0.25;entryDx=0;entryDy=0;" edge="1" parent="1" source="jVsQilZwX-sPZZp8XZDI-4">
          <mxGeometry width="50" height="50" relative="1" as="geometry">
            <mxPoint x="-239.41" y="390.75" as="sourcePoint" />
            <mxPoint x="-209.40999999999985" y="395.75" as="targetPoint" />
          </mxGeometry>
        </mxCell>
        <mxCell id="jVsQilZwX-sPZZp8XZDI-9" value="" style="endArrow=none;html=1;entryX=0;entryY=1;entryDx=0;entryDy=0;" edge="1" parent="1" source="jVsQilZwX-sPZZp8XZDI-5" target="jVsQilZwX-sPZZp8XZDI-101">
          <mxGeometry width="50" height="50" relative="1" as="geometry">
            <mxPoint x="-182.38000000000005" y="501.9100000000001" as="sourcePoint" />
            <mxPoint x="-196.71000000000004" y="424.99" as="targetPoint" />
          </mxGeometry>
        </mxCell>
        <mxCell id="jVsQilZwX-sPZZp8XZDI-10" value="&lt;u&gt;ID&lt;/u&gt;" style="ellipse;whiteSpace=wrap;html=1;" vertex="1" parent="1">
          <mxGeometry x="176.41000000000003" y="215" width="60" height="30" as="geometry" />
        </mxCell>
        <mxCell id="jVsQilZwX-sPZZp8XZDI-11" value="Phone Number" style="ellipse;whiteSpace=wrap;html=1;" vertex="1" parent="1">
          <mxGeometry x="226.41000000000003" y="263.75" width="75.59" height="37.5" as="geometry" />
        </mxCell>
        <mxCell id="jVsQilZwX-sPZZp8XZDI-12" value="Has" style="rhombus;whiteSpace=wrap;html=1;" vertex="1" parent="1">
          <mxGeometry x="-411.08" y="387.88" width="74" height="40" as="geometry" />
        </mxCell>
        <mxCell id="jVsQilZwX-sPZZp8XZDI-13" value="&lt;u&gt;ID&lt;/u&gt;" style="ellipse;whiteSpace=wrap;html=1;" vertex="1" parent="1">
          <mxGeometry x="-554.14" y="30" width="50" height="30" as="geometry" />
        </mxCell>
        <mxCell id="jVsQilZwX-sPZZp8XZDI-14" value="Number account" style="ellipse;whiteSpace=wrap;html=1;" vertex="1" parent="1">
          <mxGeometry x="-699.14" y="130" width="70" height="45" as="geometry" />
        </mxCell>
        <mxCell id="jVsQilZwX-sPZZp8XZDI-15" value="Name owner" style="ellipse;whiteSpace=wrap;html=1;" vertex="1" parent="1">
          <mxGeometry x="-699.14" y="55" width="70" height="45" as="geometry" />
        </mxCell>
        <mxCell id="jVsQilZwX-sPZZp8XZDI-16" style="edgeStyle=orthogonalEdgeStyle;rounded=0;orthogonalLoop=1;jettySize=auto;html=1;exitX=0.5;exitY=1;exitDx=0;exitDy=0;" edge="1" parent="1" source="jVsQilZwX-sPZZp8XZDI-15" target="jVsQilZwX-sPZZp8XZDI-15">
          <mxGeometry relative="1" as="geometry" />
        </mxCell>
        <mxCell id="jVsQilZwX-sPZZp8XZDI-17" value="Bic code" style="ellipse;whiteSpace=wrap;html=1;" vertex="1" parent="1">
          <mxGeometry x="-558.64" y="180" width="59" height="35" as="geometry" />
        </mxCell>
        <mxCell id="jVsQilZwX-sPZZp8XZDI-18" value="" style="endArrow=none;html=1;exitX=1;exitY=0.5;exitDx=0;exitDy=0;entryX=0;entryY=0.75;entryDx=0;entryDy=0;" edge="1" parent="1" source="jVsQilZwX-sPZZp8XZDI-14" target="jVsQilZwX-sPZZp8XZDI-40">
          <mxGeometry width="50" height="50" relative="1" as="geometry">
            <mxPoint x="-563.7944123828154" y="76.9678568426325" as="sourcePoint" />
            <mxPoint x="-579.14" y="117.5" as="targetPoint" />
          </mxGeometry>
        </mxCell>
        <mxCell id="jVsQilZwX-sPZZp8XZDI-19" value="" style="endArrow=none;html=1;exitX=0.5;exitY=0;exitDx=0;exitDy=0;entryX=0.5;entryY=1;entryDx=0;entryDy=0;" edge="1" parent="1" source="jVsQilZwX-sPZZp8XZDI-17" target="jVsQilZwX-sPZZp8XZDI-40">
          <mxGeometry width="50" height="50" relative="1" as="geometry">
            <mxPoint x="-543.7944123828154" y="96.9678568426325" as="sourcePoint" />
            <mxPoint x="-579.14" y="135" as="targetPoint" />
          </mxGeometry>
        </mxCell>
        <mxCell id="jVsQilZwX-sPZZp8XZDI-20" value="HouseNo" style="ellipse;whiteSpace=wrap;html=1;" vertex="1" parent="1">
          <mxGeometry x="40.58999999999998" y="540" width="79.41" height="40" as="geometry" />
        </mxCell>
        <mxCell id="jVsQilZwX-sPZZp8XZDI-21" value="Street name" style="ellipse;whiteSpace=wrap;html=1;" vertex="1" parent="1">
          <mxGeometry x="120" y="520" width="71.59" height="40" as="geometry" />
        </mxCell>
        <mxCell id="jVsQilZwX-sPZZp8XZDI-22" value="" style="endArrow=none;html=1;exitX=0.5;exitY=1;exitDx=0;exitDy=0;entryX=0.5;entryY=0;entryDx=0;entryDy=0;" edge="1" parent="1" source="jVsQilZwX-sPZZp8XZDI-48" target="jVsQilZwX-sPZZp8XZDI-20">
          <mxGeometry width="50" height="50" relative="1" as="geometry">
            <mxPoint x="106.00000000000014" y="457.5" as="sourcePoint" />
            <mxPoint x="-13.000000000000028" y="430" as="targetPoint" />
          </mxGeometry>
        </mxCell>
        <mxCell id="jVsQilZwX-sPZZp8XZDI-23" value="Department" style="rounded=0;whiteSpace=wrap;html=1;" vertex="1" parent="1">
          <mxGeometry x="-558.3" y="540" width="75" height="30" as="geometry" />
        </mxCell>
        <mxCell id="jVsQilZwX-sPZZp8XZDI-24" value="&lt;u&gt;ID&lt;/u&gt;" style="ellipse;whiteSpace=wrap;html=1;" vertex="1" parent="1">
          <mxGeometry x="14" y="510.75" width="60" height="29.25" as="geometry" />
        </mxCell>
        <mxCell id="jVsQilZwX-sPZZp8XZDI-25" value="" style="endArrow=none;html=1;entryX=0.759;entryY=0.091;entryDx=0;entryDy=0;entryPerimeter=0;exitX=0.33;exitY=0.985;exitDx=0;exitDy=0;exitPerimeter=0;" edge="1" parent="1" source="jVsQilZwX-sPZZp8XZDI-48" target="jVsQilZwX-sPZZp8XZDI-24">
          <mxGeometry width="50" height="50" relative="1" as="geometry">
            <mxPoint x="50" y="490" as="sourcePoint" />
            <mxPoint x="50.265000000000015" y="510" as="targetPoint" />
          </mxGeometry>
        </mxCell>
        <mxCell id="jVsQilZwX-sPZZp8XZDI-26" value="&lt;u&gt;ID&lt;/u&gt;" style="ellipse;whiteSpace=wrap;html=1;" vertex="1" parent="1">
          <mxGeometry x="-656.9399999999999" y="530" width="55.59" height="30" as="geometry" />
        </mxCell>
        <mxCell id="jVsQilZwX-sPZZp8XZDI-27" value="Name" style="ellipse;whiteSpace=wrap;html=1;" vertex="1" parent="1">
          <mxGeometry x="-664.23" y="570" width="55.59" height="35" as="geometry" />
        </mxCell>
        <mxCell id="jVsQilZwX-sPZZp8XZDI-28" value="" style="endArrow=none;html=1;entryX=0;entryY=0.25;entryDx=0;entryDy=0;exitX=1;exitY=0.5;exitDx=0;exitDy=0;" edge="1" parent="1" source="jVsQilZwX-sPZZp8XZDI-26" target="jVsQilZwX-sPZZp8XZDI-23">
          <mxGeometry width="50" height="50" relative="1" as="geometry">
            <mxPoint x="-580" y="570" as="sourcePoint" />
            <mxPoint x="-240.55" y="582.5" as="targetPoint" />
          </mxGeometry>
        </mxCell>
        <mxCell id="jVsQilZwX-sPZZp8XZDI-29" value="" style="endArrow=none;html=1;entryX=0;entryY=0.75;entryDx=0;entryDy=0;" edge="1" parent="1" source="jVsQilZwX-sPZZp8XZDI-27" target="jVsQilZwX-sPZZp8XZDI-23">
          <mxGeometry width="50" height="50" relative="1" as="geometry">
            <mxPoint x="-165.5499999999999" y="472.5" as="sourcePoint" />
            <mxPoint x="-200.5499999999999" y="490" as="targetPoint" />
          </mxGeometry>
        </mxCell>
        <mxCell id="jVsQilZwX-sPZZp8XZDI-30" value="Position name" style="ellipse;whiteSpace=wrap;html=1;" vertex="1" parent="1">
          <mxGeometry x="-934.1399999999999" y="343.82" width="56" height="37.5" as="geometry" />
        </mxCell>
        <mxCell id="jVsQilZwX-sPZZp8XZDI-31" value="" style="endArrow=none;html=1;exitX=0;exitY=0.5;exitDx=0;exitDy=0;entryX=1;entryY=0.5;entryDx=0;entryDy=0;" edge="1" parent="1" source="jVsQilZwX-sPZZp8XZDI-12" target="jVsQilZwX-sPZZp8XZDI-92">
          <mxGeometry width="50" height="50" relative="1" as="geometry">
            <mxPoint x="-130" y="238" as="sourcePoint" />
            <mxPoint x="20" y="210" as="targetPoint" />
            <Array as="points" />
          </mxGeometry>
        </mxCell>
        <mxCell id="jVsQilZwX-sPZZp8XZDI-32" value="" style="endArrow=none;html=1;exitX=0;exitY=0.5;exitDx=0;exitDy=0;entryX=1;entryY=0.5;entryDx=0;entryDy=0;" edge="1" parent="1" target="jVsQilZwX-sPZZp8XZDI-12" source="jVsQilZwX-sPZZp8XZDI-101">
          <mxGeometry width="50" height="50" relative="1" as="geometry">
            <mxPoint x="-134.40999999999985" y="385.75" as="sourcePoint" />
            <mxPoint x="-110.22000000000003" y="305" as="targetPoint" />
          </mxGeometry>
        </mxCell>
        <mxCell id="jVsQilZwX-sPZZp8XZDI-33" value="" style="endArrow=none;html=1;entryX=0.5;entryY=1;entryDx=0;entryDy=0;exitX=0.5;exitY=0;exitDx=0;exitDy=0;" edge="1" parent="1" source="jVsQilZwX-sPZZp8XZDI-23" target="jVsQilZwX-sPZZp8XZDI-43">
          <mxGeometry width="50" height="50" relative="1" as="geometry">
            <mxPoint x="-562.05" y="640" as="sourcePoint" />
            <mxPoint x="-516.05" y="550" as="targetPoint" />
          </mxGeometry>
        </mxCell>
        <mxCell id="jVsQilZwX-sPZZp8XZDI-34" value="" style="endArrow=none;html=1;exitX=1;exitY=0.5;exitDx=0;exitDy=0;entryX=0.361;entryY=0.015;entryDx=0;entryDy=0;entryPerimeter=0;" edge="1" parent="1" source="jVsQilZwX-sPZZp8XZDI-37">
          <mxGeometry width="50" height="50" relative="1" as="geometry">
            <mxPoint x="-161.5" y="248" as="sourcePoint" />
            <mxPoint x="-173.30999999999995" y="386.3499999999999" as="targetPoint" />
            <Array as="points">
              <mxPoint x="-172" y="225" />
            </Array>
          </mxGeometry>
        </mxCell>
        <mxCell id="jVsQilZwX-sPZZp8XZDI-35" style="edgeStyle=orthogonalEdgeStyle;rounded=0;orthogonalLoop=1;jettySize=auto;html=1;exitX=0.5;exitY=1;exitDx=0;exitDy=0;" edge="1" parent="1">
          <mxGeometry relative="1" as="geometry">
            <mxPoint x="-233" y="492.25" as="sourcePoint" />
            <mxPoint x="-233" y="492.25" as="targetPoint" />
          </mxGeometry>
        </mxCell>
        <mxCell id="jVsQilZwX-sPZZp8XZDI-36" value="1" style="edgeLabel;html=1;align=center;verticalAlign=middle;resizable=0;points=[];" vertex="1" connectable="0" parent="1">
          <mxGeometry x="-450.00176470588247" y="580.0000000000001" as="geometry">
            <mxPoint x="-112" y="-5" as="offset" />
          </mxGeometry>
        </mxCell>
        <mxCell id="jVsQilZwX-sPZZp8XZDI-37" value="Has" style="rhombus;whiteSpace=wrap;html=1;" vertex="1" parent="1">
          <mxGeometry x="-427.65" y="105" width="74" height="40" as="geometry" />
        </mxCell>
        <mxCell id="jVsQilZwX-sPZZp8XZDI-38" value="" style="endArrow=none;html=1;exitX=1;exitY=0.5;exitDx=0;exitDy=0;entryX=0;entryY=0.5;entryDx=0;entryDy=0;" edge="1" parent="1" source="jVsQilZwX-sPZZp8XZDI-40" target="jVsQilZwX-sPZZp8XZDI-37">
          <mxGeometry width="50" height="50" relative="1" as="geometry">
            <mxPoint x="-420" y="205" as="sourcePoint" />
            <mxPoint x="-300" y="325" as="targetPoint" />
            <Array as="points" />
          </mxGeometry>
        </mxCell>
        <mxCell id="jVsQilZwX-sPZZp8XZDI-39" value="Contact" style="shape=ext;margin=3;double=1;whiteSpace=wrap;html=1;align=center;" vertex="1" parent="1">
          <mxGeometry x="74.00000000000006" y="262.5" width="100" height="40" as="geometry" />
        </mxCell>
        <mxCell id="jVsQilZwX-sPZZp8XZDI-40" value="Bank details" style="shape=ext;margin=3;double=1;whiteSpace=wrap;html=1;align=center;" vertex="1" parent="1">
          <mxGeometry x="-592.8" y="100" width="100" height="40" as="geometry" />
        </mxCell>
        <mxCell id="jVsQilZwX-sPZZp8XZDI-41" value="" style="endArrow=none;html=1;exitX=0.5;exitY=1;exitDx=0;exitDy=0;entryX=0.5;entryY=0;entryDx=0;entryDy=0;" edge="1" parent="1" source="jVsQilZwX-sPZZp8XZDI-13" target="jVsQilZwX-sPZZp8XZDI-40">
          <mxGeometry width="50" height="50" relative="1" as="geometry">
            <mxPoint x="-619.14" y="127.5" as="sourcePoint" />
            <mxPoint x="-579.14" y="117.5" as="targetPoint" />
          </mxGeometry>
        </mxCell>
        <mxCell id="jVsQilZwX-sPZZp8XZDI-42" value="" style="endArrow=none;html=1;exitX=1;exitY=0.5;exitDx=0;exitDy=0;entryX=0;entryY=0.25;entryDx=0;entryDy=0;" edge="1" parent="1" source="jVsQilZwX-sPZZp8XZDI-15" target="jVsQilZwX-sPZZp8XZDI-40">
          <mxGeometry width="50" height="50" relative="1" as="geometry">
            <mxPoint x="-599.14" y="65" as="sourcePoint" />
            <mxPoint x="-554.14" y="100" as="targetPoint" />
          </mxGeometry>
        </mxCell>
        <mxCell id="jVsQilZwX-sPZZp8XZDI-43" value="Belongs" style="rhombus;whiteSpace=wrap;html=1;" vertex="1" parent="1">
          <mxGeometry x="-549.61" y="465.75" width="57.62" height="30" as="geometry" />
        </mxCell>
        <mxCell id="jVsQilZwX-sPZZp8XZDI-44" value="" style="endArrow=none;html=1;exitX=0.5;exitY=1;exitDx=0;exitDy=0;entryX=0.5;entryY=0;entryDx=0;entryDy=0;" edge="1" parent="1" target="jVsQilZwX-sPZZp8XZDI-43" source="jVsQilZwX-sPZZp8XZDI-92">
          <mxGeometry width="50" height="50" relative="1" as="geometry">
            <mxPoint x="-630.14" y="400.32" as="sourcePoint" />
            <mxPoint x="-520" y="450" as="targetPoint" />
          </mxGeometry>
        </mxCell>
        <mxCell id="jVsQilZwX-sPZZp8XZDI-45" value="" style="endArrow=none;html=1;entryX=1;entryY=0.5;entryDx=0;entryDy=0;exitX=0;exitY=0.75;exitDx=0;exitDy=0;" edge="1" parent="1" source="jVsQilZwX-sPZZp8XZDI-79" target="jVsQilZwX-sPZZp8XZDI-30">
          <mxGeometry width="50" height="50" relative="1" as="geometry">
            <mxPoint x="-732.73" y="411.32" as="sourcePoint" />
            <mxPoint x="-794.23" y="396.32" as="targetPoint" />
          </mxGeometry>
        </mxCell>
        <mxCell id="jVsQilZwX-sPZZp8XZDI-46" value="" style="endArrow=none;html=1;entryX=0;entryY=0.5;entryDx=0;entryDy=0;exitX=1;exitY=0.5;exitDx=0;exitDy=0;" edge="1" parent="1" source="jVsQilZwX-sPZZp8XZDI-39" target="jVsQilZwX-sPZZp8XZDI-11">
          <mxGeometry width="50" height="50" relative="1" as="geometry">
            <mxPoint x="183.21000000000015" y="291.89" as="sourcePoint" />
            <mxPoint x="227.90679656440363" y="272.49660171779817" as="targetPoint" />
          </mxGeometry>
        </mxCell>
        <mxCell id="jVsQilZwX-sPZZp8XZDI-47" value="" style="endArrow=none;html=1;entryX=0;entryY=0.5;entryDx=0;entryDy=0;exitX=0.5;exitY=1;exitDx=0;exitDy=0;" edge="1" parent="1" source="jVsQilZwX-sPZZp8XZDI-39" target="jVsQilZwX-sPZZp8XZDI-1">
          <mxGeometry width="50" height="50" relative="1" as="geometry">
            <mxPoint x="179.00000000000017" y="312.5" as="sourcePoint" />
            <mxPoint x="237.91000000000003" y="312.5" as="targetPoint" />
            <Array as="points">
              <mxPoint x="124" y="334" />
            </Array>
          </mxGeometry>
        </mxCell>
        <mxCell id="jVsQilZwX-sPZZp8XZDI-48" value="Adress" style="shape=ext;margin=3;double=1;whiteSpace=wrap;html=1;align=center;" vertex="1" parent="1">
          <mxGeometry x="47.00000000000003" y="435" width="100" height="40" as="geometry" />
        </mxCell>
        <mxCell id="jVsQilZwX-sPZZp8XZDI-49" value="" style="endArrow=none;html=1;exitX=0.75;exitY=1;exitDx=0;exitDy=0;entryX=0.245;entryY=0.033;entryDx=0;entryDy=0;entryPerimeter=0;" edge="1" parent="1" source="jVsQilZwX-sPZZp8XZDI-48" target="jVsQilZwX-sPZZp8XZDI-21">
          <mxGeometry width="50" height="50" relative="1" as="geometry">
            <mxPoint x="160.4500000000002" y="480" as="sourcePoint" />
            <mxPoint x="219.36" y="491.67499999999995" as="targetPoint" />
          </mxGeometry>
        </mxCell>
        <mxCell id="jVsQilZwX-sPZZp8XZDI-50" value="belongs" style="rhombus;whiteSpace=wrap;html=1;" vertex="1" parent="1">
          <mxGeometry x="-84.66" y="395.75" width="68.66" height="44.25" as="geometry" />
        </mxCell>
        <mxCell id="jVsQilZwX-sPZZp8XZDI-51" value="Name" style="ellipse;whiteSpace=wrap;html=1;" vertex="1" parent="1">
          <mxGeometry x="423.41" y="445.75" width="60" height="30" as="geometry" />
        </mxCell>
        <mxCell id="jVsQilZwX-sPZZp8XZDI-52" value="&lt;u&gt;ID&lt;/u&gt;" style="ellipse;whiteSpace=wrap;html=1;" vertex="1" parent="1">
          <mxGeometry x="433" y="405" width="60" height="30" as="geometry" />
        </mxCell>
        <mxCell id="jVsQilZwX-sPZZp8XZDI-53" value="City" style="shape=ext;margin=3;double=1;whiteSpace=wrap;html=1;align=center;" vertex="1" parent="1">
          <mxGeometry x="290" y="397.87" width="100" height="40" as="geometry" />
        </mxCell>
        <mxCell id="jVsQilZwX-sPZZp8XZDI-54" value="" style="endArrow=none;html=1;entryX=1;entryY=0.25;entryDx=0;entryDy=0;exitX=0;exitY=0.5;exitDx=0;exitDy=0;" edge="1" parent="1" source="jVsQilZwX-sPZZp8XZDI-52" target="jVsQilZwX-sPZZp8XZDI-53">
          <mxGeometry width="50" height="50" relative="1" as="geometry">
            <mxPoint x="679" y="265.75" as="sourcePoint" />
            <mxPoint x="617.5" y="265.75" as="targetPoint" />
          </mxGeometry>
        </mxCell>
        <mxCell id="jVsQilZwX-sPZZp8XZDI-55" value="" style="endArrow=none;html=1;entryX=1;entryY=0.75;entryDx=0;entryDy=0;exitX=0;exitY=0.5;exitDx=0;exitDy=0;" edge="1" parent="1" source="jVsQilZwX-sPZZp8XZDI-51" target="jVsQilZwX-sPZZp8XZDI-53">
          <mxGeometry width="50" height="50" relative="1" as="geometry">
            <mxPoint x="689" y="347.25" as="sourcePoint" />
            <mxPoint x="627.5" y="347.25" as="targetPoint" />
          </mxGeometry>
        </mxCell>
        <mxCell id="jVsQilZwX-sPZZp8XZDI-56" value="" style="endArrow=none;html=1;entryX=1;entryY=0;entryDx=0;entryDy=0;exitX=0;exitY=1;exitDx=0;exitDy=0;" edge="1" parent="1" source="jVsQilZwX-sPZZp8XZDI-58">
          <mxGeometry width="50" height="50" relative="1" as="geometry">
            <mxPoint x="55.00000000000006" y="262.5" as="sourcePoint" />
            <mxPoint x="-109.40999999999985" y="385.75" as="targetPoint" />
          </mxGeometry>
        </mxCell>
        <mxCell id="jVsQilZwX-sPZZp8XZDI-57" value="" style="endArrow=none;html=1;entryX=0;entryY=0.5;entryDx=0;entryDy=0;exitX=0.5;exitY=0;exitDx=0;exitDy=0;" edge="1" parent="1" source="jVsQilZwX-sPZZp8XZDI-39" target="jVsQilZwX-sPZZp8XZDI-10">
          <mxGeometry width="50" height="50" relative="1" as="geometry">
            <mxPoint x="242.9999999999999" y="209.5" as="sourcePoint" />
            <mxPoint x="185.9999999999999" y="209.5" as="targetPoint" />
            <Array as="points">
              <mxPoint x="124" y="230" />
            </Array>
          </mxGeometry>
        </mxCell>
        <mxCell id="jVsQilZwX-sPZZp8XZDI-58" value="Has" style="rhombus;whiteSpace=wrap;html=1;" vertex="1" parent="1">
          <mxGeometry x="-60" y="320" width="58.5" height="40" as="geometry" />
        </mxCell>
        <mxCell id="jVsQilZwX-sPZZp8XZDI-59" value="" style="endArrow=none;html=1;entryX=1;entryY=0.25;entryDx=0;entryDy=0;exitX=0;exitY=0.5;exitDx=0;exitDy=0;" edge="1" parent="1" source="jVsQilZwX-sPZZp8XZDI-39" target="jVsQilZwX-sPZZp8XZDI-58">
          <mxGeometry width="50" height="50" relative="1" as="geometry">
            <mxPoint x="42" y="322.5" as="sourcePoint" />
            <mxPoint x="-37.58999999999992" y="345" as="targetPoint" />
          </mxGeometry>
        </mxCell>
        <mxCell id="jVsQilZwX-sPZZp8XZDI-60" value="" style="endArrow=none;html=1;exitX=1;exitY=0.5;exitDx=0;exitDy=0;startArrow=none;" edge="1" parent="1" source="jVsQilZwX-sPZZp8XZDI-101" target="jVsQilZwX-sPZZp8XZDI-50">
          <mxGeometry width="50" height="50" relative="1" as="geometry">
            <mxPoint x="-109.40999999999985" y="405.75" as="sourcePoint" />
            <mxPoint x="-30" y="416" as="targetPoint" />
          </mxGeometry>
        </mxCell>
        <mxCell id="jVsQilZwX-sPZZp8XZDI-61" value="" style="endArrow=none;html=1;exitX=0;exitY=0.25;exitDx=0;exitDy=0;entryX=1;entryY=1;entryDx=0;entryDy=0;" edge="1" parent="1" source="jVsQilZwX-sPZZp8XZDI-48" target="jVsQilZwX-sPZZp8XZDI-50">
          <mxGeometry width="50" height="50" relative="1" as="geometry">
            <mxPoint x="-27.589999999999918" y="385" as="sourcePoint" />
            <mxPoint x="30" y="455" as="targetPoint" />
          </mxGeometry>
        </mxCell>
        <mxCell id="jVsQilZwX-sPZZp8XZDI-62" value="Has" style="rhombus;whiteSpace=wrap;html=1;" vertex="1" parent="1">
          <mxGeometry x="191.59" y="410.75" width="68.5" height="40" as="geometry" />
        </mxCell>
        <mxCell id="jVsQilZwX-sPZZp8XZDI-63" value="" style="endArrow=none;html=1;exitX=1;exitY=0.25;exitDx=0;exitDy=0;entryX=0.112;entryY=0.615;entryDx=0;entryDy=0;entryPerimeter=0;" edge="1" parent="1" source="jVsQilZwX-sPZZp8XZDI-48" target="jVsQilZwX-sPZZp8XZDI-62">
          <mxGeometry width="50" height="50" relative="1" as="geometry">
            <mxPoint x="230" y="450" as="sourcePoint" />
            <mxPoint x="220" y="430" as="targetPoint" />
          </mxGeometry>
        </mxCell>
        <mxCell id="jVsQilZwX-sPZZp8XZDI-64" value="" style="endArrow=none;html=1;exitX=1;exitY=0;exitDx=0;exitDy=0;entryX=0;entryY=0.5;entryDx=0;entryDy=0;" edge="1" parent="1" source="jVsQilZwX-sPZZp8XZDI-62" target="jVsQilZwX-sPZZp8XZDI-53">
          <mxGeometry width="50" height="50" relative="1" as="geometry">
            <mxPoint x="273.875" y="495" as="sourcePoint" />
            <mxPoint x="340" y="510.75" as="targetPoint" />
          </mxGeometry>
        </mxCell>
        <mxCell id="jVsQilZwX-sPZZp8XZDI-65" value="Country" style="rounded=0;whiteSpace=wrap;html=1;" vertex="1" parent="1">
          <mxGeometry x="492.99999999999994" y="316.88" width="70" height="30" as="geometry" />
        </mxCell>
        <mxCell id="jVsQilZwX-sPZZp8XZDI-66" value="" style="endArrow=none;html=1;entryX=0;entryY=0.75;entryDx=0;entryDy=0;" edge="1" parent="1" source="jVsQilZwX-sPZZp8XZDI-80" target="jVsQilZwX-sPZZp8XZDI-65">
          <mxGeometry width="50" height="50" relative="1" as="geometry">
            <mxPoint x="317.5" y="345" as="sourcePoint" />
            <mxPoint x="367.5" y="295" as="targetPoint" />
          </mxGeometry>
        </mxCell>
        <mxCell id="jVsQilZwX-sPZZp8XZDI-67" value="&lt;u&gt;ID&lt;/u&gt;" style="ellipse;whiteSpace=wrap;html=1;" vertex="1" parent="1">
          <mxGeometry x="583" y="291.88" width="60" height="30" as="geometry" />
        </mxCell>
        <mxCell id="jVsQilZwX-sPZZp8XZDI-68" value="Name" style="ellipse;whiteSpace=wrap;html=1;" vertex="1" parent="1">
          <mxGeometry x="583" y="338.13" width="60" height="30" as="geometry" />
        </mxCell>
        <mxCell id="jVsQilZwX-sPZZp8XZDI-69" value="" style="endArrow=none;html=1;exitX=1;exitY=0.25;exitDx=0;exitDy=0;entryX=0;entryY=0.5;entryDx=0;entryDy=0;" edge="1" parent="1" source="jVsQilZwX-sPZZp8XZDI-65" target="jVsQilZwX-sPZZp8XZDI-67">
          <mxGeometry width="50" height="50" relative="1" as="geometry">
            <mxPoint x="559.5899999999999" y="527.63" as="sourcePoint" />
            <mxPoint x="659.59" y="396.88" as="targetPoint" />
          </mxGeometry>
        </mxCell>
        <mxCell id="jVsQilZwX-sPZZp8XZDI-70" value="" style="endArrow=none;html=1;entryX=0;entryY=0;entryDx=0;entryDy=0;" edge="1" parent="1" target="jVsQilZwX-sPZZp8XZDI-68">
          <mxGeometry width="50" height="50" relative="1" as="geometry">
            <mxPoint x="562.5900000000001" y="336.8800000000001" as="sourcePoint" />
            <mxPoint x="609.59" y="316.88" as="targetPoint" />
          </mxGeometry>
        </mxCell>
        <mxCell id="jVsQilZwX-sPZZp8XZDI-71" value="1..N" style="edgeLabel;html=1;align=center;verticalAlign=middle;resizable=0;points=[];" vertex="1" connectable="0" parent="1">
          <mxGeometry x="370.0036326258822" y="460.7539609393499" as="geometry">
            <mxPoint x="-203" y="-20" as="offset" />
          </mxGeometry>
        </mxCell>
        <mxCell id="jVsQilZwX-sPZZp8XZDI-72" value="1" style="edgeLabel;html=1;align=center;verticalAlign=middle;resizable=0;points=[];" vertex="1" connectable="0" parent="1">
          <mxGeometry x="123.99711984999871" y="455.00355992499914" as="geometry">
            <mxPoint x="156" y="-38" as="offset" />
          </mxGeometry>
        </mxCell>
        <mxCell id="jVsQilZwX-sPZZp8XZDI-73" value="1" style="edgeLabel;html=1;align=center;verticalAlign=middle;resizable=0;points=[];" vertex="1" connectable="0" parent="1">
          <mxGeometry x="329.99711984999874" y="377.87355992499914" as="geometry">
            <mxPoint x="156" y="-38" as="offset" />
          </mxGeometry>
        </mxCell>
        <mxCell id="jVsQilZwX-sPZZp8XZDI-74" value="1" style="edgeLabel;html=1;align=center;verticalAlign=middle;resizable=0;points=[];" vertex="1" connectable="0" parent="1">
          <mxGeometry x="-255.2928801500013" y="445.75355992499914" as="geometry">
            <mxPoint x="156" y="-38" as="offset" />
          </mxGeometry>
        </mxCell>
        <mxCell id="jVsQilZwX-sPZZp8XZDI-75" value="1" style="edgeLabel;html=1;align=center;verticalAlign=middle;resizable=0;points=[];" vertex="1" connectable="0" parent="1">
          <mxGeometry x="-121.61288015000132" y="480.75355992499914" as="geometry">
            <mxPoint x="156" y="-38" as="offset" />
          </mxGeometry>
        </mxCell>
        <mxCell id="jVsQilZwX-sPZZp8XZDI-76" value="1" style="edgeLabel;html=1;align=center;verticalAlign=middle;resizable=0;points=[];" vertex="1" connectable="0" parent="1">
          <mxGeometry x="-629.1428801500012" y="158.75355992499914" as="geometry">
            <mxPoint x="156" y="-38" as="offset" />
          </mxGeometry>
        </mxCell>
        <mxCell id="jVsQilZwX-sPZZp8XZDI-77" value="1" style="edgeLabel;html=1;align=center;verticalAlign=middle;resizable=0;points=[];" vertex="1" connectable="0" parent="1">
          <mxGeometry x="-330.0028801500013" y="412.87355992499914" as="geometry">
            <mxPoint x="156" y="-38" as="offset" />
          </mxGeometry>
        </mxCell>
        <mxCell id="jVsQilZwX-sPZZp8XZDI-78" value="0..N" style="edgeLabel;html=1;align=center;verticalAlign=middle;resizable=0;points=[];" vertex="1" connectable="0" parent="1">
          <mxGeometry x="-287.5563673741178" y="455.7539609393499" as="geometry">
            <mxPoint x="-203" y="-20" as="offset" />
          </mxGeometry>
        </mxCell>
        <mxCell id="jVsQilZwX-sPZZp8XZDI-79" value="Position" style="rounded=0;whiteSpace=wrap;html=1;" vertex="1" parent="1">
          <mxGeometry x="-844.14" y="326.32" width="80" height="30" as="geometry" />
        </mxCell>
        <mxCell id="jVsQilZwX-sPZZp8XZDI-80" value="In" style="rhombus;whiteSpace=wrap;html=1;" vertex="1" parent="1">
          <mxGeometry x="392.91" y="337.87" width="68.5" height="40" as="geometry" />
        </mxCell>
        <mxCell id="jVsQilZwX-sPZZp8XZDI-81" value="" style="endArrow=none;html=1;exitX=0.5;exitY=0;exitDx=0;exitDy=0;entryX=0;entryY=1;entryDx=0;entryDy=0;" edge="1" parent="1" source="jVsQilZwX-sPZZp8XZDI-53" target="jVsQilZwX-sPZZp8XZDI-80">
          <mxGeometry width="50" height="50" relative="1" as="geometry">
            <mxPoint x="352" y="385.75" as="sourcePoint" />
            <mxPoint x="430" y="282.5" as="targetPoint" />
          </mxGeometry>
        </mxCell>
        <mxCell id="jVsQilZwX-sPZZp8XZDI-82" value="1..N" style="edgeLabel;html=1;align=center;verticalAlign=middle;resizable=0;points=[];" vertex="1" connectable="0" parent="1">
          <mxGeometry x="198.4071198499987" y="415.75355992499914" as="geometry">
            <mxPoint x="156" y="-38" as="offset" />
          </mxGeometry>
        </mxCell>
        <mxCell id="jVsQilZwX-sPZZp8XZDI-83" value="1" style="edgeLabel;html=1;align=center;verticalAlign=middle;resizable=0;points=[];" vertex="1" connectable="0" parent="1">
          <mxGeometry x="-253.7028801500013" y="417.87355992499914" as="geometry">
            <mxPoint x="156" y="-38" as="offset" />
          </mxGeometry>
        </mxCell>
        <mxCell id="jVsQilZwX-sPZZp8XZDI-84" value="1" style="edgeLabel;html=1;align=center;verticalAlign=middle;resizable=0;points=[];" vertex="1" connectable="0" parent="1">
          <mxGeometry x="-90.00288015000132" y="330.00355992499914" as="geometry">
            <mxPoint x="156" y="-38" as="offset" />
          </mxGeometry>
        </mxCell>
        <mxCell id="jVsQilZwX-sPZZp8XZDI-85" value="Belongs" style="rhombus;whiteSpace=wrap;html=1;" vertex="1" parent="1">
          <mxGeometry x="-719.73" y="325" width="55.5" height="30" as="geometry" />
        </mxCell>
        <mxCell id="jVsQilZwX-sPZZp8XZDI-86" value="" style="endArrow=none;html=1;entryX=0.5;entryY=1;entryDx=0;entryDy=0;" edge="1" parent="1">
          <mxGeometry width="50" height="50" relative="1" as="geometry">
            <mxPoint x="-692.14" y="401.32" as="sourcePoint" />
            <mxPoint x="-692.3199999999998" y="356.32" as="targetPoint" />
          </mxGeometry>
        </mxCell>
        <mxCell id="jVsQilZwX-sPZZp8XZDI-87" value="" style="endArrow=none;html=1;entryX=1;entryY=0.5;entryDx=0;entryDy=0;exitX=0;exitY=0.5;exitDx=0;exitDy=0;" edge="1" parent="1" target="jVsQilZwX-sPZZp8XZDI-79">
          <mxGeometry width="50" height="50" relative="1" as="geometry">
            <mxPoint x="-717.7199999999999" y="340.9800000000001" as="sourcePoint" />
            <mxPoint x="-748.5500000000001" y="340.98" as="targetPoint" />
          </mxGeometry>
        </mxCell>
        <mxCell id="jVsQilZwX-sPZZp8XZDI-88" value="&lt;u&gt;ID&lt;/u&gt;" style="ellipse;whiteSpace=wrap;html=1;" vertex="1" parent="1">
          <mxGeometry x="-929.73" y="306.32" width="45.59" height="25" as="geometry" />
        </mxCell>
        <mxCell id="jVsQilZwX-sPZZp8XZDI-89" value="" style="endArrow=none;html=1;exitX=0;exitY=0.25;exitDx=0;exitDy=0;entryX=0.973;entryY=0.698;entryDx=0;entryDy=0;entryPerimeter=0;" edge="1" parent="1" source="jVsQilZwX-sPZZp8XZDI-79" target="jVsQilZwX-sPZZp8XZDI-88">
          <mxGeometry width="50" height="50" relative="1" as="geometry">
            <mxPoint x="-834.14" y="358.82000000000005" as="sourcePoint" />
            <mxPoint x="-874.14" y="334.32" as="targetPoint" />
          </mxGeometry>
        </mxCell>
        <mxCell id="jVsQilZwX-sPZZp8XZDI-90" value="1" style="edgeLabel;html=1;align=center;verticalAlign=middle;resizable=0;points=[];" vertex="1" connectable="0" parent="1">
          <mxGeometry x="-282.89288015000136" y="412.87355992499914" as="geometry">
            <mxPoint x="156" y="-38" as="offset" />
          </mxGeometry>
        </mxCell>
        <mxCell id="jVsQilZwX-sPZZp8XZDI-91" value="0..N" style="edgeLabel;html=1;align=center;verticalAlign=middle;resizable=0;points=[];" vertex="1" connectable="0" parent="1">
          <mxGeometry x="198.41363262588217" y="225.0039609393499" as="geometry">
            <mxPoint x="-203" y="-20" as="offset" />
          </mxGeometry>
        </mxCell>
        <mxCell id="jVsQilZwX-sPZZp8XZDI-92" value="Work details" style="shape=associativeEntity;whiteSpace=wrap;html=1;align=center;" vertex="1" parent="1">
          <mxGeometry x="-566.59" y="387.88" width="91.59" height="40" as="geometry" />
        </mxCell>
        <mxCell id="jVsQilZwX-sPZZp8XZDI-93" value="&lt;u&gt;DepartmentID&lt;/u&gt;" style="ellipse;whiteSpace=wrap;html=1;" vertex="1" parent="1">
          <mxGeometry x="-824.14" y="381.32" width="90.59" height="30" as="geometry" />
        </mxCell>
        <mxCell id="jVsQilZwX-sPZZp8XZDI-94" value="&lt;u&gt;PositionID&lt;/u&gt;" style="ellipse;whiteSpace=wrap;html=1;" vertex="1" parent="1">
          <mxGeometry x="-861.3399999999999" y="411.32" width="75.59" height="30" as="geometry" />
        </mxCell>
        <mxCell id="jVsQilZwX-sPZZp8XZDI-95" value="&lt;u&gt;EmployeeID&lt;/u&gt;" style="ellipse;whiteSpace=wrap;html=1;" vertex="1" parent="1">
          <mxGeometry x="-824.14" y="441.32" width="80.59" height="30" as="geometry" />
        </mxCell>
        <mxCell id="jVsQilZwX-sPZZp8XZDI-96" value="" style="endArrow=none;html=1;entryX=1;entryY=0.5;entryDx=0;entryDy=0;exitX=0;exitY=0;exitDx=0;exitDy=0;" edge="1" parent="1" source="jVsQilZwX-sPZZp8XZDI-92" target="jVsQilZwX-sPZZp8XZDI-93">
          <mxGeometry width="50" height="50" relative="1" as="geometry">
            <mxPoint x="-707.7199999999999" y="350.9800000000001" as="sourcePoint" />
            <mxPoint x="-754.14" y="351.32000000000005" as="targetPoint" />
          </mxGeometry>
        </mxCell>
        <mxCell id="jVsQilZwX-sPZZp8XZDI-97" value="" style="endArrow=none;html=1;entryX=1;entryY=0.5;entryDx=0;entryDy=0;exitX=0;exitY=0.5;exitDx=0;exitDy=0;" edge="1" parent="1" source="jVsQilZwX-sPZZp8XZDI-92" target="jVsQilZwX-sPZZp8XZDI-94">
          <mxGeometry width="50" height="50" relative="1" as="geometry">
            <mxPoint x="-702.9800000000001" y="411.3200000000001" as="sourcePoint" />
            <mxPoint x="-723.550000000003" y="406.32" as="targetPoint" />
          </mxGeometry>
        </mxCell>
        <mxCell id="jVsQilZwX-sPZZp8XZDI-98" value="" style="endArrow=none;html=1;entryX=1;entryY=0.5;entryDx=0;entryDy=0;exitX=0;exitY=0.75;exitDx=0;exitDy=0;" edge="1" parent="1" source="jVsQilZwX-sPZZp8XZDI-92" target="jVsQilZwX-sPZZp8XZDI-95">
          <mxGeometry width="50" height="50" relative="1" as="geometry">
            <mxPoint x="-703.14" y="456.32" as="sourcePoint" />
            <mxPoint x="-745.2490217090091" y="445.75192106637274" as="targetPoint" />
          </mxGeometry>
        </mxCell>
        <mxCell id="jVsQilZwX-sPZZp8XZDI-99" value="0..N" style="edgeLabel;html=1;align=center;verticalAlign=middle;resizable=0;points=[];" vertex="1" connectable="0" parent="1">
          <mxGeometry x="-490.7263673741178" y="411.3239609393499" as="geometry">
            <mxPoint x="-203" y="-20" as="offset" />
          </mxGeometry>
        </mxCell>
        <mxCell id="jVsQilZwX-sPZZp8XZDI-100" value="1" style="edgeLabel;html=1;align=center;verticalAlign=middle;resizable=0;points=[];" vertex="1" connectable="0" parent="1">
          <mxGeometry x="-359.9963673741177" y="555.0039609393499" as="geometry">
            <mxPoint x="-203" y="-20" as="offset" />
          </mxGeometry>
        </mxCell>
        <mxCell id="jVsQilZwX-sPZZp8XZDI-101" value="Employee" style="rounded=0;whiteSpace=wrap;html=1;" vertex="1" parent="1">
          <mxGeometry x="-230" y="385.75" width="120.19" height="44.25" as="geometry" />
        </mxCell>
        <mxCell id="jVsQilZwX-sPZZp8XZDI-102" value="" style="endArrow=none;html=1;exitX=1;exitY=0.5;exitDx=0;exitDy=0;" edge="1" parent="1" target="jVsQilZwX-sPZZp8XZDI-101">
          <mxGeometry width="50" height="50" relative="1" as="geometry">
            <mxPoint x="-109.40999999999985" y="405.75" as="sourcePoint" />
            <mxPoint x="-74.37543658127515" y="409.6303243332569" as="targetPoint" />
          </mxGeometry>
        </mxCell>
        <mxCell id="jVsQilZwX-sPZZp8XZDI-103" value="Monthly salary" style="shape=ext;margin=3;double=1;whiteSpace=wrap;html=1;align=center;" vertex="1" parent="1">
          <mxGeometry x="-140" y="602.88" width="100" height="40" as="geometry" />
        </mxCell>
        <mxCell id="jVsQilZwX-sPZZp8XZDI-104" value="Has" style="rhombus;whiteSpace=wrap;html=1;" vertex="1" parent="1">
          <mxGeometry x="-158.5" y="485.75" width="58.5" height="40" as="geometry" />
        </mxCell>
        <mxCell id="jVsQilZwX-sPZZp8XZDI-105" value="" style="endArrow=none;html=1;exitX=0.396;exitY=0.15;exitDx=0;exitDy=0;exitPerimeter=0;entryX=0.651;entryY=0.992;entryDx=0;entryDy=0;entryPerimeter=0;" edge="1" parent="1" source="jVsQilZwX-sPZZp8XZDI-104" target="jVsQilZwX-sPZZp8XZDI-101">
          <mxGeometry width="50" height="50" relative="1" as="geometry">
            <mxPoint x="-34.16" y="474.58000000000004" as="sourcePoint" />
            <mxPoint x="-160" y="450" as="targetPoint" />
          </mxGeometry>
        </mxCell>
        <mxCell id="jVsQilZwX-sPZZp8XZDI-106" value="" style="endArrow=none;html=1;exitX=0.347;exitY=-0.025;exitDx=0;exitDy=0;exitPerimeter=0;entryX=0.658;entryY=0.883;entryDx=0;entryDy=0;entryPerimeter=0;" edge="1" parent="1" source="jVsQilZwX-sPZZp8XZDI-103" target="jVsQilZwX-sPZZp8XZDI-104">
          <mxGeometry width="50" height="50" relative="1" as="geometry">
            <mxPoint x="-64.79399999999984" y="529.25" as="sourcePoint" />
            <mxPoint x="-80" y="510" as="targetPoint" />
          </mxGeometry>
        </mxCell>
        <mxCell id="jVsQilZwX-sPZZp8XZDI-107" value="1" style="edgeLabel;html=1;align=center;verticalAlign=middle;resizable=0;points=[];" vertex="1" connectable="0" parent="1">
          <mxGeometry x="-300.0028801500013" y="480.75355992499914" as="geometry">
            <mxPoint x="156" y="-38" as="offset" />
          </mxGeometry>
        </mxCell>
        <mxCell id="jVsQilZwX-sPZZp8XZDI-108" value="1" style="edgeLabel;html=1;align=center;verticalAlign=middle;resizable=0;points=[];" vertex="1" connectable="0" parent="1">
          <mxGeometry x="-265.5928801500013" y="622.8835599249991" as="geometry">
            <mxPoint x="156" y="-38" as="offset" />
          </mxGeometry>
        </mxCell>
        <mxCell id="jVsQilZwX-sPZZp8XZDI-109" value="&lt;u&gt;ID&lt;/u&gt;" style="ellipse;whiteSpace=wrap;html=1;" vertex="1" parent="1">
          <mxGeometry x="-1.5" y="590.38" width="40" height="25" as="geometry" />
        </mxCell>
        <mxCell id="jVsQilZwX-sPZZp8XZDI-110" value="salary" style="ellipse;whiteSpace=wrap;html=1;" vertex="1" parent="1">
          <mxGeometry x="6.2900000000000285" y="615.38" width="67.71" height="35" as="geometry" />
        </mxCell>
        <mxCell id="jVsQilZwX-sPZZp8XZDI-111" value="" style="endArrow=none;html=1;exitX=1;exitY=0.25;exitDx=0;exitDy=0;entryX=0;entryY=0.5;entryDx=0;entryDy=0;" edge="1" parent="1" source="jVsQilZwX-sPZZp8XZDI-103" target="jVsQilZwX-sPZZp8XZDI-109">
          <mxGeometry width="50" height="50" relative="1" as="geometry">
            <mxPoint x="-64.99000000000018" y="656.5599999999998" as="sourcePoint" />
            <mxPoint x="-119.7" y="537.88" as="targetPoint" />
          </mxGeometry>
        </mxCell>
        <mxCell id="jVsQilZwX-sPZZp8XZDI-112" value="" style="endArrow=none;html=1;exitX=1;exitY=0.5;exitDx=0;exitDy=0;entryX=0;entryY=0.5;entryDx=0;entryDy=0;" edge="1" parent="1" source="jVsQilZwX-sPZZp8XZDI-103" target="jVsQilZwX-sPZZp8XZDI-110">
          <mxGeometry width="50" height="50" relative="1" as="geometry">
            <mxPoint x="-109.7" y="567.8799999999999" as="sourcePoint" />
            <mxPoint x="-139.7" y="559.88" as="targetPoint" />
          </mxGeometry>
        </mxCell>
        <mxCell id="jVsQilZwX-sPZZp8XZDI-113" value="Postal code" style="ellipse;whiteSpace=wrap;html=1;" vertex="1" parent="1">
          <mxGeometry x="166.41" y="490" width="80" height="39.25" as="geometry" />
        </mxCell>
        <mxCell id="jVsQilZwX-sPZZp8XZDI-114" value="" style="endArrow=none;html=1;entryX=0.04;entryY=0.307;entryDx=0;entryDy=0;exitX=1;exitY=1;exitDx=0;exitDy=0;entryPerimeter=0;" edge="1" parent="1" source="jVsQilZwX-sPZZp8XZDI-48" target="jVsQilZwX-sPZZp8XZDI-113">
          <mxGeometry width="50" height="50" relative="1" as="geometry">
            <mxPoint x="170" y="480" as="sourcePoint" />
            <mxPoint x="154.20499999999993" y="520" as="targetPoint" />
          </mxGeometry>
        </mxCell>
        <mxCell id="jVsQilZwX-sPZZp8XZDI-115" value="belongs" style="rhombus;whiteSpace=wrap;html=1;" vertex="1" parent="1">
          <mxGeometry x="-240" y="480.75" width="68.5" height="45" as="geometry" />
        </mxCell>
        <mxCell id="jVsQilZwX-sPZZp8XZDI-116" value="" style="endArrow=none;html=1;exitX=0.563;exitY=0.058;exitDx=0;exitDy=0;entryX=0.299;entryY=1.001;entryDx=0;entryDy=0;entryPerimeter=0;exitPerimeter=0;" edge="1" parent="1" source="jVsQilZwX-sPZZp8XZDI-115" target="jVsQilZwX-sPZZp8XZDI-101">
          <mxGeometry width="50" height="50" relative="1" as="geometry">
            <mxPoint x="-300.00000000000034" y="593.35" as="sourcePoint" />
            <mxPoint x="-196" y="431" as="targetPoint" />
          </mxGeometry>
        </mxCell>
        <mxCell id="jVsQilZwX-sPZZp8XZDI-117" value="" style="endArrow=none;html=1;exitX=1;exitY=0.5;exitDx=0;exitDy=0;entryX=0.316;entryY=0.84;entryDx=0;entryDy=0;entryPerimeter=0;" edge="1" parent="1" source="jVsQilZwX-sPZZp8XZDI-118" target="jVsQilZwX-sPZZp8XZDI-115">
          <mxGeometry width="50" height="50" relative="1" as="geometry">
            <mxPoint x="-340" y="570" as="sourcePoint" />
            <mxPoint x="-250" y="530" as="targetPoint" />
            <Array as="points">
              <mxPoint x="-240" y="560" />
            </Array>
          </mxGeometry>
        </mxCell>
        <mxCell id="jVsQilZwX-sPZZp8XZDI-118" value="Status" style="shape=ext;margin=3;double=1;whiteSpace=wrap;html=1;align=center;" vertex="1" parent="1">
          <mxGeometry x="-209.81" y="80" width="100" height="40" as="geometry" />
        </mxCell>
        <mxCell id="jVsQilZwX-sPZZp8XZDI-119" value="1" style="edgeLabel;html=1;align=center;verticalAlign=middle;resizable=0;points=[];" vertex="1" connectable="0" parent="1">
          <mxGeometry x="-353.6528801500013" y="480.75355992499914" as="geometry">
            <mxPoint x="156" y="-38" as="offset" />
          </mxGeometry>
        </mxCell>
        <mxCell id="jVsQilZwX-sPZZp8XZDI-120" value="1" style="edgeLabel;html=1;align=center;verticalAlign=middle;resizable=0;points=[];" vertex="1" connectable="0" parent="1">
          <mxGeometry x="-475.00288015000126" y="602.8835599249992" as="geometry">
            <mxPoint x="156" y="-38" as="offset" />
          </mxGeometry>
        </mxCell>
        <mxCell id="jVsQilZwX-sPZZp8XZDI-121" value="&lt;u&gt;ID&lt;/u&gt;" style="ellipse;whiteSpace=wrap;html=1;" vertex="1" parent="1">
          <mxGeometry x="-270" y="65" width="40" height="25" as="geometry" />
        </mxCell>
        <mxCell id="jVsQilZwX-sPZZp8XZDI-122" value="status" style="ellipse;whiteSpace=wrap;html=1;" vertex="1" parent="1">
          <mxGeometry x="-287.56" y="102.5" width="67.71" height="35" as="geometry" />
        </mxCell>
        <mxCell id="jVsQilZwX-sPZZp8XZDI-123" value="" style="endArrow=none;html=1;exitX=0;exitY=0.25;exitDx=0;exitDy=0;entryX=1;entryY=0.5;entryDx=0;entryDy=0;" edge="1" parent="1" source="jVsQilZwX-sPZZp8XZDI-118" target="jVsQilZwX-sPZZp8XZDI-121">
          <mxGeometry width="50" height="50" relative="1" as="geometry">
            <mxPoint x="-109.69999999999982" y="567.8799999999999" as="sourcePoint" />
            <mxPoint x="-143.69999999999982" y="559.63" as="targetPoint" />
          </mxGeometry>
        </mxCell>
        <mxCell id="jVsQilZwX-sPZZp8XZDI-124" value="" style="endArrow=none;html=1;entryX=1;entryY=0.5;entryDx=0;entryDy=0;exitX=0;exitY=0.75;exitDx=0;exitDy=0;" edge="1" parent="1" source="jVsQilZwX-sPZZp8XZDI-118" target="jVsQilZwX-sPZZp8XZDI-122">
          <mxGeometry width="50" height="50" relative="1" as="geometry">
            <mxPoint x="-440" y="590" as="sourcePoint" />
            <mxPoint x="-470" y="551.7500000000001" as="targetPoint" />
          </mxGeometry>
        </mxCell>
      </root>
    </mxGraphModel>
  </diagram>
</mxfile>
